# xmcd CD database file
#
# Track frame offsets:
#	150
#	21125
#	52447
#	73188
#	99254
#	115622
#	132441
#	151764
#	171734
#	185874
#	204903
#	224367
#	259601
#	281233
#
# Disc length: 4083 seconds
#
# Revision: 0
# Processed by: cddbd v1.5.2PL0 Copyright (c) Steve Scherf et al.
# Submitted via: CDex 1.70beta2
#
DISCID=da0ff10e
DTITLE=Diane Linscott - Once Upon A Summertime
DYEAR=2008
DGENRE=Jazz
TTITLE0=When the red, red robin comes bob, bob, bobbin' along
TTITLE1=Spring can really hang you up the most
TTITLE2=You hit the spot
TTITLE3=Happiness is just a thing called joe
TTITLE4=Between the devil and the deep blue sea
TTITLE5=And we were lovers*/ I'll close my eyes
TTITLE6=Nowhere
TTITLE7=Just another sunday
TTITLE8=Pick yourself up
TTITLE9=Once upon a summertime
TTITLE10=What a little moonlight can do
TTITLE11=Only trust your heart
TTITLE12=The song is you
TTITLE13=Monkery's The Blues
EXTD=YEAR: 2008
EXTT0=
EXTT1=
EXTT2=
EXTT3=
EXTT4=
EXTT5=
EXTT6=
EXTT7=
EXTT8=
EXTT9=
EXTT10=
EXTT11=
EXTT12=
EXTT13=
PLAYORDER=
